<svg width="126" height="126" viewBox="0 0 126 126" fill="none" xmlns="http://www.w3.org/2000/svg">
<circle cx="63" cy="63" r="63" fill="black"/>
<path fill-rule="evenodd" clip-rule="evenodd" d="M70.6304 48C66.5376 48 63.116 49.4797 60.7218 52.1134C58.332 54.7421 57.0058 58.4754 57.0058 62.9185C57.0058 67.2636 58.2733 70.8845 60.5942 73.4249C62.9198 75.9706 66.2571 77.3804 70.2879 77.3804C74.3787 77.3804 77.7912 75.9212 80.177 73.3057C82.5583 70.6952 83.8745 66.9802 83.8745 62.538C83.8745 58.1745 82.6074 54.5354 80.2923 51.9808C77.9722 49.4207 74.6442 48 70.6304 48ZM60.9654 62.6902C60.9654 59.1454 61.9024 56.362 63.5415 54.4728C65.1725 52.5929 67.5478 51.541 70.5543 51.541C73.5015 51.541 75.8179 52.5816 77.4064 54.454C79.0043 56.3376 79.915 59.122 79.915 62.6902C79.915 66.2584 79.0043 69.0421 77.3978 70.9253C75.8007 72.7974 73.4655 73.8394 70.4782 73.8394C67.4905 73.8394 65.135 72.7969 63.5187 70.923C61.8938 69.0393 60.9654 66.2559 60.9654 62.6902ZM81.3185 48.5328H103.849V51.9977H94.4875V76.7715H90.642V51.9977H81.3185V48.5328ZM19 48.5328H23.0283L23.3329 49.5683L23.3344 49.5738C24.4365 53.6401 25.6148 57.7452 26.4513 60.597L26.4519 60.5992L28.3157 66.761C28.6575 67.9004 28.9614 68.888 29.3036 69.9908L29.3066 70.0005L29.3093 70.0103C29.5111 70.76 29.6456 71.1968 29.8009 71.6875L33.5385 60.6207L33.5392 60.6187C34.4913 57.7243 36.2386 52.3681 37.0731 49.5613L37.3756 48.5328H40.3434L40.6478 49.5679L40.6492 49.573C41.5613 52.9173 42.9676 57.7822 43.8406 60.591L43.8409 60.592L45.7445 66.7597L47.2516 71.7365L48.9524 66.705C50.5113 62.1042 51.1569 60.0914 52.0688 57.1656L52.0698 57.1626L52.0708 57.1595C53.0579 54.1222 53.8554 51.4641 54.4261 49.5616L54.4266 49.5601L54.7287 48.5328H58.7066L58.1497 50.3274C56.3605 56.1517 55.2552 59.5822 53.9212 63.47C52.8534 66.6733 51.0637 71.6995 49.6544 75.4704L49.6533 75.4733L49.186 76.7715H45.0013L44.5357 75.3748L44.5343 75.3704C44.2561 74.4851 43.9787 73.636 43.7001 72.7836C43.5605 72.3563 43.4206 71.9281 43.2802 71.4942C42.7327 69.8152 42.6718 69.5956 42.4987 68.9718L42.4766 68.8925L40.3863 62.2413L40.3859 62.2399C39.4927 59.3705 38.9985 57.6687 38.7209 56.2368C38.7063 56.1618 38.6924 56.0875 38.679 56.0138C38.6199 56.2624 38.5547 56.5256 38.4824 56.8093L38.4818 56.8113L38.4813 56.8133C37.9049 59.0037 37.0232 61.6859 35.4263 66.4006C34.6645 68.6477 33.7884 71.2 32.3038 75.4253L31.8378 76.7715H27.6767L27.2585 75.4123C23.6043 64.6019 22.5358 61.1673 19.5275 50.4667L19.5269 50.4647L19 48.5328Z" fill="white"/>
</svg>
