<?xml version="1.0" standalone="no"?>
<!DOCTYPE svg PUBLIC "-//W3C//DTD SVG 20010904//EN"
 "http://www.w3.org/TR/2001/REC-SVG-20010904/DTD/svg10.dtd">
<svg version="1.0" xmlns="http://www.w3.org/2000/svg"
 width="16px" height="16px" viewBox="0 0 512.000000 512.000000"
 preserveAspectRatio="xMidYMid meet">

<g transform="translate(0.000000,512.000000) scale(0.100000,-0.100000)"
fill="#000000" stroke="none">
<path d="M1745 4556 c-183 -38 -374 -126 -526 -241 -149 -113 -305 -306 -383
-476 l-35 -75 -73 -28 c-552 -211 -852 -819 -678 -1378 72 -235 249 -471 447
-602 l73 -48 0 -88 c0 -210 79 -443 212 -621 161 -218 373 -360 642 -432 l81
-22 1340 0 1340 0 100 27 c379 105 682 401 790 773 136 470 -52 978 -462 1248
l-63 41 0 89 c0 291 -150 608 -382 808 -238 205 -539 301 -846 269 -97 -10
-117 -10 -121 2 -2 7 -22 47 -44 88 -184 351 -542 612 -927 675 -143 23 -350
19 -485 -9z m447 -290 c302 -58 559 -248 702 -520 l36 -68 -72 -50 c-40 -28
-81 -57 -90 -65 -15 -13 -46 -15 -175 -14 -241 3 -412 -36 -614 -141 -248
-129 -471 -360 -580 -603 -33 -73 -36 -76 -84 -91 -192 -63 -394 -212 -525
-386 -56 -74 -139 -225 -153 -277 -6 -24 -6 -24 -59 21 -69 59 -149 164 -192
253 -181 368 -62 814 278 1040 83 55 201 108 269 120 72 14 98 41 142 152 23
55 64 136 90 179 58 93 176 219 261 280 115 83 278 151 411 174 80 13 276 11
355 -4z m1444 -786 c154 -40 276 -112 390 -233 82 -86 145 -185 179 -284 25
-72 52 -200 43 -208 -3 -3 -29 0 -59 6 -64 14 -246 17 -345 6 l-71 -8 -36 73
c-116 235 -314 440 -544 565 l-77 42 37 16 c36 15 129 39 192 49 57 9 213 -4
291 -24z m-793 -264 c177 -53 320 -137 441 -260 67 -68 155 -191 192 -270 19
-38 19 -39 0 -50 -76 -46 -176 -130 -191 -162 -46 -97 28 -214 135 -214 38 0
68 15 162 82 97 70 175 104 282 123 111 19 161 19 270 0 179 -31 316 -103 446
-234 114 -116 172 -217 217 -382 24 -89 24 -299 -1 -389 -84 -306 -310 -529
-608 -600 -86 -20 -104 -20 -1375 -18 l-1288 3 -70 24 c-255 86 -442 258 -533
491 -74 190 -69 440 12 625 55 124 170 263 285 346 60 43 172 95 256 119 111
32 123 45 185 201 113 282 381 506 695 580 123 29 368 21 488 -15z"/>
</g>
</svg>
