<?xml version="1.0" standalone="no"?>
<!DOCTYPE svg PUBLIC "-//W3C//DTD SVG 20010904//EN"
 "http://www.w3.org/TR/2001/REC-SVG-20010904/DTD/svg10.dtd">
<svg version="1.0" xmlns="http://www.w3.org/2000/svg"
 width="16px" height="16px" viewBox="0 0 512.000000 512.000000"
 preserveAspectRatio="xMidYMid meet">

<g transform="translate(0.000000,512.000000) scale(0.100000,-0.100000)"
fill="#000000" stroke="none">
<path d="M3223 4850 c-76 -39 -77 -45 -83 -309 l-5 -235 -76 -12 c-164 -28
-344 -101 -486 -196 l-81 -55 -149 149 c-81 81 -162 155 -179 163 -68 32 -157
9 -194 -50 -24 -39 -27 -113 -6 -153 8 -15 82 -94 164 -176 l150 -149 -38 -51
c-20 -28 -49 -72 -64 -98 -25 -43 -31 -47 -74 -53 -348 -45 -630 -182 -867
-419 -126 -127 -214 -249 -286 -400 l-49 -104 -78 -27 c-292 -103 -562 -347
-697 -630 -138 -287 -161 -619 -64 -921 137 -429 484 -743 935 -845 l99 -23
1390 -4 c1471 -3 1523 -2 1700 43 451 114 806 488 908 955 27 127 30 368 4
487 -55 259 -161 457 -342 639 -83 84 -219 193 -255 206 -5 2 -1 30 9 63 11
34 27 100 36 148 l18 87 219 0 c244 0 269 5 311 64 30 42 31 123 1 162 -50 68
-53 69 -304 72 l-228 3 -11 64 c-30 172 -104 356 -200 498 -28 42 -51 79 -51
84 0 4 69 75 154 157 116 114 157 160 166 189 34 108 -63 214 -176 192 -32 -6
-64 -33 -199 -166 l-162 -159 -81 54 c-144 97 -335 174 -486 198 l-75 12 -3
232 c-3 217 -4 234 -24 260 -51 69 -122 89 -191 54z m331 -874 c95 -29 220
-87 293 -138 118 -80 251 -234 315 -363 64 -127 108 -309 108 -445 0 -68 -22
-214 -42 -282 -13 -43 -17 -44 -103 -22 -85 21 -350 29 -445 12 l-75 -13 -50
100 c-69 138 -143 242 -255 358 -115 121 -231 209 -372 282 -105 55 -302 126
-385 140 -24 4 -43 11 -43 16 0 16 133 150 198 199 71 52 196 118 278 144 118
38 176 46 334 42 133 -3 168 -7 244 -30z m-1011 -679 c318 -84 587 -302 741
-602 20 -38 36 -75 36 -80 0 -6 -17 -19 -37 -30 -21 -11 -72 -45 -114 -76 -58
-43 -80 -66 -92 -98 -21 -52 -21 -66 3 -118 25 -56 70 -83 136 -83 46 0 59 5
120 51 91 66 230 134 329 161 64 17 109 21 225 21 130 1 154 -2 235 -27 262
-79 462 -243 585 -478 76 -146 103 -258 103 -433 1 -154 -11 -218 -64 -356
-84 -219 -298 -435 -518 -524 -34 -14 -101 -36 -149 -48 l-87 -22 -1430 0
c-1322 0 -1436 1 -1508 17 -186 42 -334 122 -471 256 -175 172 -270 382 -283
632 -23 443 271 842 708 962 95 26 128 52 154 123 146 408 475 692 890 770
126 23 363 14 488 -18z"/>
</g>
</svg>
