<svg width="85" height="30" viewBox="0 0 85 30" fill="none" xmlns="http://www.w3.org/2000/svg">
<path id="Union" fill-rule="evenodd" clip-rule="evenodd" d="M51.6304 0.309814C47.5376 0.309814 44.116 1.78952 41.7218 4.42321C39.332 7.05196 38.0058 10.7852 38.0058 15.2283C38.0058 19.5735 39.2733 23.1943 41.5942 25.7348C43.9198 28.2804 47.2571 29.6902 51.2879 29.6902C55.3787 29.6902 58.7912 28.231 61.177 25.6155C63.5583 23.0051 64.8745 19.2901 64.8745 14.8478C64.8745 10.4843 63.6074 6.8452 61.2923 4.29064C58.9722 1.73048 55.6442 0.309814 51.6304 0.309814ZM41.9654 15C41.9654 11.4552 42.9024 8.67181 44.5415 6.78261C46.1725 4.9027 48.5478 3.8508 51.5543 3.8508C54.5015 3.8508 56.8179 4.89143 58.4064 6.76385C60.0043 8.6474 60.915 11.4319 60.915 15C60.915 18.5682 60.0043 21.3519 58.3978 23.2351C56.8007 25.1072 54.4655 26.1492 51.4782 26.1492C48.4905 26.1492 46.135 25.1068 44.5187 23.2329C42.8938 21.3491 41.9654 18.5657 41.9654 15ZM84.849 0.842598H62.3185V4.30747H71.642V29.0813H75.4875V4.30747H84.849V0.842598ZM0 0.842598H4.02832L4.33289 1.87812L4.33438 1.88362C5.43645 5.94989 6.61476 10.0551 7.45126 12.9068L7.4519 12.909L9.31568 19.0708C9.6575 20.2102 9.96139 21.1979 10.3036 22.3006L10.3066 22.3103L10.3093 22.3201C10.5111 23.0698 10.6456 23.5066 10.8009 23.9973L12.4849 19.0154L14.5385 12.9305L14.5392 12.9286C15.4913 10.0341 17.2385 4.67841 18.0729 1.87165L18.0731 1.87115L18.3756 0.842598H21.3434L21.6478 1.87771L21.6492 1.88281C22.5613 5.22711 23.9676 10.092 24.8406 12.9008L24.8409 12.9018L26.7445 19.0695L28.2516 24.0463L29.9522 19.0152L29.9524 19.0148C31.5113 14.414 32.1569 12.4012 33.0688 9.47544L33.0698 9.47237L33.0708 9.4693C34.0579 6.43203 34.8554 3.77393 35.4261 1.87138L35.4266 1.86988L35.7287 0.842598H39.7066L39.1499 2.63661L39.1497 2.63721C37.3605 8.46149 36.2552 11.892 34.9212 15.7798C33.8534 18.9831 32.0637 24.0093 30.6544 27.7802L30.6533 27.7831L30.186 29.0813H26.0013L25.5357 27.6846L25.5343 27.6802C25.2561 26.7949 24.9787 25.9458 24.7001 25.0935C24.5605 24.6661 24.4206 24.238 24.2802 23.804C23.7327 22.125 23.6718 21.9054 23.4987 21.2816L23.4766 21.2023L21.3863 14.5512L21.3859 14.5498C20.4927 11.6804 19.9985 9.97854 19.7209 8.54662C19.7063 8.47157 19.6924 8.39729 19.679 8.32366C19.6199 8.57219 19.5547 8.83538 19.4824 9.11915L19.4818 9.12115L19.4813 9.12314C18.9049 11.3136 18.0232 13.9957 16.4263 18.7104C15.6645 20.9575 14.7887 23.509 13.3041 27.7343L13.3038 27.7351L12.8378 29.0813H8.67669L8.25848 27.7222C4.60428 16.9117 3.53579 13.4771 0.527461 2.77656L0.526897 2.77455L0 0.842598Z" fill="current"/>
</svg>
