<svg width="16" height="17" viewBox="0 0 16 17" fill="none" xmlns="http://www.w3.org/2000/svg">
<path class='image' d="M14 0.5H2C1.46957 0.5 0.960859 0.710714 0.585786 1.08579C0.210714 1.46086 0 1.96957 0 2.5L0 16.5H16V2.5C16 1.96957 15.7893 1.46086 15.4142 1.08579C15.0391 0.710714 14.5304 0.5 14 0.5V0.5ZM2 1.83333H14C14.1768 1.83333 14.3464 1.90357 14.4714 2.0286C14.5964 2.15362 14.6667 2.32319 14.6667 2.5V14.224L7.414 6.97133C7.03895 6.59639 6.53033 6.38576 6 6.38576C5.46967 6.38576 4.96106 6.59639 4.586 6.97133L1.33333 10.224V2.5C1.33333 2.32319 1.40357 2.15362 1.5286 2.0286C1.65362 1.90357 1.82319 1.83333 2 1.83333V1.83333ZM1.33333 12.1093L5.52867 7.914C5.65369 7.78902 5.82322 7.71881 6 7.71881C6.17678 7.71881 6.34631 7.78902 6.47133 7.914L13.724 15.1667H1.33333V12.1093Z" fill="current"/>
<path class='image' d="M10.6666 7.16624C11.0621 7.16624 11.4488 7.04894 11.7777 6.82917C12.1066 6.60941 12.3629 6.29705 12.5143 5.9316C12.6657 5.56615 12.7053 5.16402 12.6281 4.77605C12.551 4.38809 12.3605 4.03173 12.0808 3.75202C11.8011 3.47232 11.4447 3.28183 11.0567 3.20466C10.6688 3.12749 10.2667 3.1671 9.9012 3.31848C9.53575 3.46985 9.22339 3.7262 9.00363 4.05509C8.78386 4.38399 8.66656 4.77067 8.66656 5.16624C8.66656 5.69667 8.87728 6.20538 9.25235 6.58045C9.62742 6.95552 10.1361 7.16624 10.6666 7.16624V7.16624ZM10.6666 4.49957C10.7984 4.49957 10.9273 4.53867 11.0369 4.61192C11.1466 4.68518 11.232 4.7893 11.2825 4.91111C11.3329 5.03293 11.3461 5.16697 11.3204 5.2963C11.2947 5.42562 11.2312 5.5444 11.138 5.63764C11.0447 5.73087 10.9259 5.79437 10.7966 5.82009C10.6673 5.84582 10.5333 5.83261 10.4114 5.78216C10.2896 5.7317 10.1855 5.64625 10.1123 5.53662C10.039 5.42698 9.9999 5.29809 9.9999 5.16624C9.9999 4.98942 10.0701 4.81986 10.1952 4.69483C10.3202 4.56981 10.4898 4.49957 10.6666 4.49957V4.49957Z" fill="current"/>
</svg>
