<svg width="16" height="17" viewBox="0 0 16 17" fill="none" xmlns="http://www.w3.org/2000/svg">
<g clip-path="url(#clip0_382_1215)">
<path d="M11.6667 1.11139C10.916 1.12307 10.1817 1.33262 9.5379 1.7189C8.8941 2.10518 8.36363 2.6545 8.00005 3.31139C7.63648 2.6545 7.10601 2.10518 6.46221 1.7189C5.81841 1.33262 5.08409 1.12307 4.33339 1.11139C3.13668 1.16338 2.00919 1.68689 1.19724 2.56754C0.385293 3.4482 -0.0451135 4.61441 5.35741e-05 5.81139C5.35741e-05 10.3281 7.30405 15.5447 7.61472 15.7661L8.00005 16.0387L8.38539 15.7661C8.69605 15.5461 16.0001 10.3281 16.0001 5.81139C16.0452 4.61441 15.6148 3.4482 14.8029 2.56754C13.9909 1.68689 12.8634 1.16338 11.6667 1.11139ZM8.00005 14.3974C5.83139 12.7774 1.33339 8.79739 1.33339 5.81139C1.28781 4.96787 1.57763 4.14054 2.13963 3.50986C2.70163 2.87917 3.49021 2.49629 4.33339 2.44472C5.17656 2.49629 5.96515 2.87917 6.52714 3.50986C7.08914 4.14054 7.37896 4.96787 7.33339 5.81139H8.66672C8.62115 4.96787 8.91096 4.14054 9.47296 3.50986C10.035 2.87917 10.8235 2.49629 11.6667 2.44472C12.5099 2.49629 13.2985 2.87917 13.8605 3.50986C14.4225 4.14054 14.7123 4.96787 14.6667 5.81139C14.6667 8.79872 10.1687 12.7774 8.00005 14.3974Z" fill="black"/>
</g>
<defs>
<clipPath id="clip0_382_1215">
<rect width="16" height="16" fill="white" transform="translate(0 0.5)"/>
</clipPath>
</defs>
</svg>
