<svg xmlns="http://www.w3.org/2000/svg" width="298" height="103" viewBox="0 0 298 103" fill="none">
<path fill-rule="evenodd" clip-rule="evenodd" d="M181.534 0.235474C167.219 0.235474 155.252 5.41088 146.878 14.6225C138.519 23.8168 133.881 36.8742 133.881 52.4145C133.881 67.612 138.314 80.2762 146.432 89.1617C154.566 98.0655 166.238 102.996 180.337 102.996C194.644 102.996 206.58 97.8924 214.924 88.7447C223.253 79.6143 227.857 66.6207 227.857 51.0835C227.857 35.8217 223.425 23.0936 215.328 14.1588C207.213 5.2044 195.573 0.235474 181.534 0.235474ZM147.73 51.6159C147.73 39.2176 151.007 29.4824 156.74 22.8747C162.445 16.2995 170.753 12.6204 181.268 12.6204C191.576 12.6204 199.678 16.2601 205.234 22.8091C210.823 29.397 214.008 39.1359 214.008 51.6159C214.008 64.096 210.823 73.8324 205.204 80.4188C199.618 86.9667 191.45 90.6114 181.002 90.6114C170.552 90.6114 162.314 86.9652 156.66 80.411C150.977 73.8223 147.73 64.0872 147.73 51.6159ZM297.72 2.09891H218.917V14.2176H251.527V100.867H264.977V14.2176H297.72V2.09891ZM0.951904 2.09891H15.0414L16.1066 5.72074L16.1118 5.74C19.9664 19.9621 24.0877 34.3204 27.0134 44.2946L27.0157 44.3023L33.5344 65.8538C34.7299 69.839 35.7929 73.2934 36.9899 77.1505L37.0004 77.1843L37.0096 77.2185C37.7156 79.8409 38.186 81.3685 38.729 83.0847L44.619 65.6601L51.8019 44.3775L51.8041 44.3707C55.1342 34.2472 61.2451 15.515 64.1637 5.69812L64.1643 5.69636L65.2223 2.09891H75.6025L76.6674 5.71932L76.6722 5.73715C79.8623 17.4342 84.781 34.4496 87.8344 44.2737L87.8355 44.2772L94.4935 65.8492L99.7646 83.2561L105.713 65.6593L105.713 65.658C111.166 49.5662 113.424 42.5264 116.613 32.2931L116.617 32.2824L116.62 32.2716C120.073 21.6485 122.862 12.3515 124.858 5.69718L124.86 5.69192L125.917 2.09891H139.83L137.882 8.37365L137.882 8.37574C131.624 28.7467 127.758 40.7454 123.092 54.3433C119.357 65.547 113.098 83.1268 108.169 96.3157L108.165 96.326L106.53 100.867H91.8939L90.2654 95.9813L90.2606 95.966C89.2875 92.8697 88.3172 89.9 87.3431 86.9186C86.8547 85.424 86.3654 83.9265 85.8744 82.4086C83.9594 76.5362 83.7463 75.7681 83.1408 73.5863L83.0638 73.3089L75.7526 50.046L75.751 50.041C72.6272 40.005 70.8985 34.0527 69.9275 29.0445C69.8766 28.782 69.8279 28.5222 69.7811 28.2647C69.5743 29.1339 69.3464 30.0544 69.0934 31.0469L69.0916 31.0539L69.0898 31.0609C67.0737 38.7221 63.9897 48.1032 58.4044 64.5932C55.7402 72.4527 52.6767 81.3768 47.4842 96.1553L47.4832 96.1582L45.8534 100.867H31.2995L29.8368 96.1128C17.0558 58.3021 13.3187 46.2892 2.79675 8.86313L2.79478 8.85611L0.951904 2.09891Z" fill="black"/>
</svg>