<svg width="297" height="current" viewBox="0 0 297 103" fill="none" xmlns="http://www.w3.org/2000/svg">
<path fill-rule="evenodd" clip-rule="evenodd" d="M180.583 0C166.267 0 154.3 5.17541 145.926 14.387C137.568 23.5813 132.929 36.6387 132.929 52.179C132.929 67.3765 137.362 80.0407 145.48 88.9262C153.614 97.83 165.286 102.761 179.385 102.761C193.693 102.761 205.628 97.657 213.973 88.5093C222.301 79.3788 226.905 66.3853 226.905 50.848C226.905 35.5863 222.473 22.8581 214.376 13.9233C206.261 4.96893 194.621 0 180.583 0ZM146.778 51.3804C146.778 38.9821 150.055 29.2469 155.788 22.6392C161.493 16.0641 169.801 12.3849 180.316 12.3849C190.624 12.3849 198.726 16.0246 204.282 22.5736C209.871 29.1615 213.056 38.9004 213.056 51.3804C213.056 63.8605 209.871 73.5969 204.252 80.1833C198.666 86.7312 190.498 90.3759 180.05 90.3759C169.6 90.3759 161.362 86.7298 155.708 80.1756C150.025 73.5868 146.778 63.8517 146.778 51.3804ZM296.768 1.86343H217.965V13.9822H250.575V100.631H264.025V13.9822H296.768V1.86343ZM0 1.86343H14.0895L15.1547 5.48526L15.1599 5.50452C19.0145 19.7267 23.1358 34.0849 26.0615 44.0591L26.0638 44.0668L32.5825 65.6183C33.778 69.6035 34.8409 73.058 36.038 76.915L36.0485 76.9488L36.0577 76.983C36.7637 79.6054 37.2341 81.133 37.7771 82.8492L43.6671 65.4247L50.85 44.1421L50.8522 44.1353C54.1823 34.0118 60.2932 15.2796 63.2118 5.46265L63.2124 5.46088L64.2704 1.86343H74.6506L75.7154 5.48384L75.7203 5.50167C78.9104 17.1987 83.8291 34.2141 86.8825 44.0382L86.8836 44.0417L93.5416 65.6137L98.8127 83.0206L104.761 65.4238L104.761 65.4225C110.214 49.3308 112.472 42.2909 115.661 32.0577L115.665 32.0469L115.668 32.0362C119.121 21.413 121.91 12.116 123.906 5.4617L123.908 5.45644L124.965 1.86343H138.878L136.93 8.13818L136.93 8.14026C130.672 28.5113 126.806 40.5099 122.14 54.1079C118.405 65.3116 112.146 82.8914 107.217 96.0802L107.213 96.0905L105.578 100.631H90.942L89.3135 95.7458L89.3087 95.7305C88.3356 92.6342 87.3653 89.6645 86.3912 86.6832C85.9028 85.1886 85.4135 83.691 84.9225 82.1732C83.0075 76.3007 82.7944 75.5326 82.1889 73.3508L82.1119 73.0734L74.8007 49.8105L74.7991 49.8056C71.6753 39.7696 69.9466 33.8173 68.9756 28.809C68.9247 28.5465 68.876 28.2867 68.8292 28.0292C68.6224 28.8984 68.3945 29.819 68.1415 30.8115L68.1397 30.8185L68.1378 30.8255C66.1217 38.4866 63.0378 47.8677 57.4525 64.3577C54.7883 72.2172 51.7248 81.1413 46.5323 95.9199L46.5313 95.9227L44.9015 100.631H30.3476L28.8848 95.8773C16.1039 58.0666 12.3668 46.0538 1.84485 8.62766L1.84287 8.62064L0 1.86343Z" fill="black"/>
</svg>
