<svg width="24" height="24" viewBox="0 0 24 24" fill="none" xmlns="http://www.w3.org/2000/svg">
<g clip-path="url(#clip0_409_3574)">
<path d="M11.9998 4C13.1043 4 13.9997 3.10457 13.9997 2C13.9997 0.89543 13.1043 0 11.9998 0C10.8952 0 9.99976 0.89543 9.99976 2C9.99976 3.10457 10.8952 4 11.9998 4Z" fill="black"/>
<path d="M11.9998 14.0003C13.1043 14.0003 13.9997 13.1049 13.9997 12.0003C13.9997 10.8957 13.1043 10.0003 11.9998 10.0003C10.8952 10.0003 9.99976 10.8957 9.99976 12.0003C9.99976 13.1049 10.8952 14.0003 11.9998 14.0003Z" fill="black"/>
<path d="M11.9998 23.9997C13.1043 23.9997 13.9997 23.1043 13.9997 21.9997C13.9997 20.8951 13.1043 19.9997 11.9998 19.9997C10.8952 19.9997 9.99976 20.8951 9.99976 21.9997C9.99976 23.1043 10.8952 23.9997 11.9998 23.9997Z" fill="black"/>
</g>
<defs>
<clipPath id="clip0_409_3574">
<rect width="24" height="24" fill="white"/>
</clipPath>
</defs>
</svg>
