<?xml version="1.0" standalone="no"?>
<!DOCTYPE svg PUBLIC "-//W3C//DTD SVG 20010904//EN"
 "http://www.w3.org/TR/2001/REC-SVG-20010904/DTD/svg10.dtd">
<svg version="1.0" xmlns="http://www.w3.org/2000/svg"
 width="16px" height="16px" viewBox="0 0 512.000000 512.000000"
 preserveAspectRatio="xMidYMid meet">

<g transform="translate(0.000000,512.000000) scale(0.100000,-0.100000)"
fill="#000000" stroke="none">
<path d="M2020 5040 c-229 -23 -449 -106 -629 -235 -96 -69 -233 -208 -304
-306 -92 -130 -184 -343 -203 -472 -4 -23 -9 -47 -13 -53 -3 -7 -51 -35 -106
-63 -383 -199 -652 -556 -741 -986 -28 -135 -26 -403 5 -545 59 -277 182 -502
385 -706 166 -165 334 -271 539 -339 224 -74 106 -69 1557 -72 1462 -4 1419
-6 1639 66 222 73 389 177 557 345 203 204 326 429 385 706 31 142 33 410 5
545 -107 512 -463 914 -952 1074 -150 49 -256 62 -521 68 l-241 6 -26 83
c-118 377 -428 692 -811 823 -154 52 -369 77 -525 61z m215 -320 c121 -14 192
-34 304 -86 120 -56 198 -112 291 -210 131 -137 210 -290 249 -479 40 -193 43
-195 391 -195 368 0 485 -16 658 -86 329 -135 566 -419 650 -779 11 -50 16
-115 15 -230 0 -139 -3 -173 -26 -258 -82 -307 -279 -553 -557 -696 -113 -58
-194 -85 -314 -106 -133 -23 -2539 -23 -2672 0 -120 21 -201 48 -314 106 -347
178 -567 518 -587 910 -24 471 266 907 712 1070 69 25 120 69 134 113 5 17 12
59 16 93 31 309 254 612 550 749 86 40 203 73 294 84 96 11 107 11 206 0z"/>
<path d="M1544 971 c-23 -10 -50 -32 -61 -47 -11 -16 -100 -167 -197 -335
-163 -283 -176 -310 -176 -355 0 -142 172 -213 267 -111 17 18 110 171 209
342 173 299 179 312 179 365 0 66 -27 110 -85 140 -48 25 -83 25 -136 1z"/>
<path d="M2665 972 c-22 -10 -45 -25 -51 -33 -15 -18 -334 -569 -364 -628 -40
-80 -12 -178 63 -218 46 -24 120 -20 161 8 40 27 19 -6 238 374 179 310 179
310 175 363 -9 116 -119 182 -222 134z"/>
<path d="M3782 969 c-36 -18 -52 -38 -105 -128 -178 -300 -317 -551 -323 -579
-23 -112 85 -212 196 -182 22 6 51 21 64 33 14 12 107 164 207 337 165 285
183 320 186 370 4 46 1 61 -19 89 -52 77 -129 99 -206 60z"/>
</g>
</svg>
