<svg width="16" height="16" viewBox="0 0 16 16" fill="none" xmlns="http://www.w3.org/2000/svg">
<path d="M10.0004 16H6.00044V13.658C5.30528 13.412 4.66141 13.0401 4.10111 12.5607L2.07178 13.7333L0.0717773 10.2667L2.10044 9.09667C1.96718 8.37163 1.96718 7.62837 2.10044 6.90333L0.0717773 5.73333L2.07178 2.26667L4.10111 3.43933C4.66141 2.95995 5.30528 2.58796 6.00044 2.342V0H10.0004V2.342C10.6956 2.58796 11.3395 2.95995 11.8998 3.43933L13.9291 2.26667L15.9291 5.73333L13.9004 6.90333C14.0337 7.62837 14.0337 8.37163 13.9004 9.09667L15.9291 10.2667L13.9291 13.7333L11.8998 12.5613C11.3394 13.0405 10.6956 13.4122 10.0004 13.658V16ZM7.33378 14.6667H8.66711V12.6487L9.16778 12.5193C9.98912 12.3066 10.7367 11.8734 11.3298 11.2667L11.6918 10.898L13.4404 11.908L14.1071 10.7533L12.3604 9.74467L12.4978 9.24733C12.7235 8.42929 12.7235 7.56538 12.4978 6.74733L12.3604 6.25L14.1071 5.24133L13.4404 4.08667L11.6918 5.09933L11.3298 4.73333C10.7364 4.12756 9.98883 3.69535 9.16778 3.48333L8.66711 3.35133V1.33333H7.33378V3.35133L6.83311 3.48067C6.01177 3.69344 5.26418 4.12659 4.67111 4.73333L4.30911 5.102L2.56044 4.08933L1.89378 5.244L3.64044 6.25267L3.50311 6.75C3.27735 7.56804 3.27735 8.43196 3.50311 9.25L3.64044 9.74733L1.89378 10.756L2.56044 11.9107L4.30911 10.9007L4.67111 11.2693C5.2645 11.8751 6.01206 12.3073 6.83311 12.5193L7.33378 12.6487V14.6667ZM8.00044 10.6667C7.47303 10.6667 6.95746 10.5103 6.51892 10.2173C6.08039 9.92424 5.7386 9.50776 5.53677 9.02049C5.33493 8.53322 5.28212 7.99704 5.38502 7.47976C5.48791 6.96248 5.74189 6.48732 6.11483 6.11438C6.48777 5.74144 6.96292 5.48747 7.4802 5.38457C7.99749 5.28168 8.53366 5.33449 9.02093 5.53632C9.5082 5.73816 9.92468 6.07995 10.2177 6.51848C10.5107 6.95701 10.6671 7.47258 10.6671 8C10.6671 8.70724 10.3862 9.38552 9.88606 9.88562C9.38597 10.3857 8.70769 10.6667 8.00044 10.6667ZM8.00044 6.66667C7.73674 6.66667 7.47895 6.74487 7.25968 6.89137C7.04042 7.03788 6.86952 7.24612 6.76861 7.48976C6.66769 7.73339 6.64128 8.00148 6.69273 8.26012C6.74418 8.51876 6.87117 8.75634 7.05764 8.94281C7.24411 9.12928 7.48168 9.25627 7.74032 9.30771C7.99897 9.35916 8.26705 9.33276 8.51069 9.23184C8.75432 9.13092 8.96256 8.96003 9.10907 8.74076C9.25558 8.5215 9.33378 8.26371 9.33378 8C9.33378 7.64638 9.1933 7.30724 8.94325 7.05719C8.6932 6.80714 8.35407 6.66667 8.00044 6.66667Z" fill="#9F9F9F"/>
</svg>
