<svg width="16" height="17" viewBox="0 0 16 17" fill="none" xmlns="http://www.w3.org/2000/svg">
<g clip-path="url(#clip0_221_1331)">
<path d="M16 9.16667V7.83333H12.6187C12.5655 7.4626 12.4675 7.09972 12.3267 6.75267L15.2547 5.048L14.584 3.896L11.6547 5.60133C11.4307 5.3198 11.1753 5.06481 10.8933 4.84133L12.5933 1.918L11.4413 1.24733L9.74133 4.17067C9.39612 4.03115 9.03527 3.93399 8.66667 3.88133V0.5H7.33333V3.88133C6.96762 3.93332 6.60949 4.02912 6.26667 4.16667L4.56933 1.24733L3.41733 1.918L5.114 4.83333C4.83056 5.05773 4.57397 5.31409 4.34933 5.59733L1.42667 3.896L0.756 5.048L3.67533 6.74733C3.53327 7.09594 3.43453 7.46067 3.38133 7.83333H0V9.16667H3.38133C3.43457 9.5376 3.53262 9.90069 3.67333 10.248L0.760667 11.9433L1.43133 13.096L4.346 11.3987C4.56761 11.6778 4.82036 11.9308 5.09933 12.1527L3.4 15.0767L4.55267 15.7473L6.25133 12.826C6.59875 12.9672 6.9621 13.0655 7.33333 13.1187V16.5H8.66667V13.1187C9.04146 13.065 9.40822 12.9653 9.75867 12.822L11.46 15.7473L12.612 15.0767L10.908 12.1467C11.1856 11.9251 11.4372 11.6728 11.658 11.3947L14.58 13.096L15.2467 11.9433L12.3253 10.2427C12.4662 9.89717 12.5647 9.53587 12.6187 9.16667H16ZM11.3333 8.5C11.1933 12.9053 4.806 12.904 4.66667 8.5C4.80667 4.09467 11.194 4.096 11.3333 8.5Z" fill="black"/>
</g>
<defs>
<clipPath id="clip0_221_1331">
<rect width="16" height="16" fill="white" transform="translate(0 0.5)"/>
</clipPath>
</defs>
</svg>
