<?xml version="1.0" standalone="no"?>
<!DOCTYPE svg PUBLIC "-//W3C//DTD SVG 20010904//EN"
 "http://www.w3.org/TR/2001/REC-SVG-20010904/DTD/svg10.dtd">
<svg version="1.0" xmlns="http://www.w3.org/2000/svg"
 width="16px" height="16px" viewBox="0 0 512.000000 512.000000"
 preserveAspectRatio="xMidYMid meet">

<g transform="translate(0.000000,512.000000) scale(0.100000,-0.100000)"
fill="#000000" stroke="none">
<path d="M2449 4775 c-446 -85 -786 -476 -792 -912 -2 -89 1 -105 19 -130 72
-97 195 -98 267 -2 13 18 22 53 28 110 12 120 26 173 71 268 80 167 259 308
443 346 329 69 653 -117 759 -435 24 -70 29 -103 30 -190 1 -125 -12 -186 -66
-300 -55 -115 -177 -239 -288 -293 -157 -77 -46 -71 -1490 -77 -1227 -5 -1297
-6 -1323 -23 -96 -63 -89 -212 13 -271 35 -21 41 -21 1335 -21 l1300 0 100 28
c250 68 448 209 580 411 249 382 207 867 -103 1197 -132 140 -286 232 -471
280 -101 27 -307 34 -412 14z"/>
<path d="M4274 3759 c-160 -18 -304 -85 -426 -198 -146 -135 -224 -298 -243
-506 -6 -61 -3 -76 17 -115 43 -83 131 -113 214 -74 53 25 75 64 85 152 12 94
23 130 62 205 112 214 418 287 620 148 307 -211 240 -672 -114 -782 -59 -18
-129 -19 -2207 -19 -2072 0 -2148 -1 -2188 -19 -61 -28 -89 -73 -89 -143 0
-63 19 -97 75 -135 l33 -23 2166 0 c2343 0 2223 -2 2361 53 139 57 273 166
355 292 136 208 159 493 56 719 -137 303 -450 482 -777 445z"/>
<path d="M95 1980 c-28 -11 -72 -60 -84 -93 -26 -68 4 -150 69 -190 l35 -22
1890 -5 c1888 -5 1890 -5 1945 -26 311 -118 435 -489 255 -761 -174 -263 -529
-311 -766 -105 -100 88 -158 208 -174 357 -9 92 -28 130 -80 160 -95 56 -211
8 -234 -98 -13 -56 6 -200 39 -299 90 -267 309 -471 585 -544 107 -28 314 -26
420 4 237 68 421 221 525 437 58 120 79 198 86 325 18 280 -125 568 -362 731
-69 47 -184 97 -276 119 -81 19 -118 20 -1968 19 -1037 0 -1894 -4 -1905 -9z"/>
</g>
</svg>
